<svg width="32" height="32" viewBox="0 0 32 32" fill="none" xmlns="http://www.w3.org/2000/svg">
<g clip-path="url(#clip0_51_647)" filter="url(#filter0_d_51_647)">
<path opacity="0.4" d="M4.85988 13.0735C4.85695 11.1181 5.38617 9.19871 6.39081 7.52112C7.29645 9.22251 8.62732 10.6603 10.2538 11.6945C11.8803 12.7287 13.7469 13.3239 15.6718 13.4223C17.5967 13.5207 19.5142 13.1188 21.2377 12.2558C22.9611 11.3929 24.4316 10.0982 25.506 8.49799C26.1741 9.93066 26.5193 11.4927 26.5171 13.0735C26.5171 19.0538 21.6692 23.9016 15.6889 23.9016C9.70862 23.9016 4.85988 19.0538 4.85988 13.0735Z" fill="#FF5050"/>
<path d="M16.0001 24C13.627 23.9996 11.3073 23.2956 9.33425 21.977C7.36119 20.6584 5.8234 18.7844 4.9153 16.5919C4.0072 14.3994 3.76956 11.9869 4.23244 9.65939C4.69531 7.33186 5.83791 5.19383 7.51577 3.5156C9.46659 1.56482 12.0299 0.345615 14.7743 0.0631966C17.5186 -0.219222 20.2765 0.452383 22.5837 1.96498C22.7156 2.048 22.8295 2.15648 22.9189 2.28406C23.0083 2.41164 23.0714 2.55577 23.1045 2.70802C23.1375 2.86027 23.1399 3.01758 23.1114 3.17075C23.0829 3.32392 23.0242 3.46988 22.9387 3.60008C22.8531 3.73029 22.7425 3.84213 22.6132 3.92906C22.4839 4.016 22.3386 4.07628 22.1857 4.10639C22.0329 4.1365 21.8755 4.13582 21.7229 4.1044C21.5703 4.07299 21.4255 4.01146 21.297 3.92342C19.7241 2.88963 17.8823 2.34036 16.0001 2.34373C10.677 2.34373 6.34389 6.67545 6.34389 12C6.34389 17.3245 10.6756 21.6562 16.0001 21.6562C21.3247 21.6562 25.6564 17.3245 25.6564 12C25.6573 11.0591 25.5207 10.1231 25.2509 9.2217C25.2067 9.07427 25.1919 8.91957 25.2075 8.76644C25.223 8.61331 25.2686 8.46474 25.3416 8.32921C25.489 8.05551 25.739 7.85157 26.0368 7.76224C26.3345 7.67292 26.6556 7.70553 26.9293 7.85291C27.203 8.00029 27.4069 8.25036 27.4962 8.5481C28.0338 10.3403 28.1449 12.2333 27.8208 14.0761C27.4967 15.9189 26.7462 17.6604 25.6293 19.1616C24.5125 20.6628 23.0601 21.8821 21.3882 22.7221C19.7163 23.5622 17.8712 23.9998 16.0001 24Z" fill="#0D0D0D"/>
<path d="M14.2438 17.7337C14.027 17.7343 13.8123 17.6918 13.6121 17.6088C13.4119 17.5257 13.2302 17.4038 13.0775 17.25L8.89064 13.064C8.78181 12.9552 8.69548 12.826 8.63658 12.6838C8.57768 12.5416 8.54736 12.3892 8.54736 12.2353C8.54736 11.9244 8.67084 11.6263 8.89064 11.4065C9.11044 11.1867 9.40855 11.0633 9.71939 11.0633C10.0302 11.0633 10.3283 11.1867 10.5481 11.4065L14.2438 15.1022L21.4541 7.88997C21.6739 7.67017 21.972 7.54669 22.2828 7.54669C22.5937 7.54669 22.8918 7.67017 23.1116 7.88997C23.3314 8.10977 23.4549 8.40788 23.4549 8.71872C23.4549 9.02956 23.3314 9.32767 23.1116 9.54747L15.4105 17.25C15.2576 17.4037 15.0758 17.5256 14.8755 17.6086C14.6753 17.6917 14.4606 17.7342 14.2438 17.7337Z" fill="#0D0D0D"/>
</g>
<defs>
<filter id="filter0_d_51_647" x="0" y="0" width="32" height="32" filterUnits="userSpaceOnUse" color-interpolation-filters="sRGB">
<feFlood flood-opacity="0" result="BackgroundImageFix"/>
<feColorMatrix in="SourceAlpha" type="matrix" values="0 0 0 0 0 0 0 0 0 0 0 0 0 0 0 0 0 0 127 0" result="hardAlpha"/>
<feOffset dy="4"/>
<feGaussianBlur stdDeviation="2"/>
<feComposite in2="hardAlpha" operator="out"/>
<feColorMatrix type="matrix" values="0 0 0 0 0 0 0 0 0 0 0 0 0 0 0 0 0 0 0.25 0"/>
<feBlend mode="normal" in2="BackgroundImageFix" result="effect1_dropShadow_51_647"/>
<feBlend mode="normal" in="SourceGraphic" in2="effect1_dropShadow_51_647" result="shape"/>
</filter>
<clipPath id="clip0_51_647">
<rect width="24" height="24" fill="white" transform="translate(4)"/>
</clipPath>
</defs>
</svg>
